<svg xmlns="http://www.w3.org/2000/svg" xmlns:xlink="http://www.w3.org/1999/xlink" width="48" height="46" version="1.1" viewBox="0 0 48 46"><title>Slice</title><desc>Created with Sketch.</desc><g id="Page-1" fill="none" fill-rule="evenodd" stroke="none" stroke-width="1"><g id="chat" transform="translate(1.000000, 0.000000)"><circle id="Oval" cx="11.5" cy="11.5" r="11.5" fill="#4A90E2"/><path id="Shape" fill="#FFF" fill-rule="nonzero" d="M12,5 C8.13406897,5 5,7.75150909 5,11.1454545 C5,12.3962909 5.42675862,13.5589636 6.15765517,14.5297091 C6.06158621,15.6512545 5.78544828,17.2308727 5,18 C5,18 7.40003448,17.6702727 9.02548276,16.7089818 C9.02717241,16.7096909 9.02910345,16.7104 9.0307931,16.7111091 C9.69796552,16.2854182 10.3661034,15.8469636 10.5044138,15.7358727 C10.5768276,15.6363636 10.7165862,15.6063455 10.8254483,15.6704 C10.8968966,15.7124727 10.9420345,15.7892909 10.9434828,15.8708364 C10.9458966,16.0178545 10.9422759,16.0561455 9.59537931,16.9158 C10.3455862,17.1568909 11.1546897,17.2909091 12,17.2909091 C15.865931,17.2909091 19,14.5394 19,11.1454545 C19,7.75150909 15.865931,5 12,5 Z"/></g><g id="chat" transform="translate(25.000000, 0.000000)"><circle id="Oval" cx="11.5" cy="11.5" r="11.5" fill="silver"/><path id="Shape" fill="#E9E9E9" fill-rule="nonzero" d="M12,5 C8.13406897,5 5,7.75150909 5,11.1454545 C5,12.3962909 5.42675862,13.5589636 6.15765517,14.5297091 C6.06158621,15.6512545 5.78544828,17.2308727 5,18 C5,18 7.40003448,17.6702727 9.02548276,16.7089818 C9.02717241,16.7096909 9.02910345,16.7104 9.0307931,16.7111091 C9.69796552,16.2854182 10.3661034,15.8469636 10.5044138,15.7358727 C10.5768276,15.6363636 10.7165862,15.6063455 10.8254483,15.6704 C10.8968966,15.7124727 10.9420345,15.7892909 10.9434828,15.8708364 C10.9458966,16.0178545 10.9422759,16.0561455 9.59537931,16.9158 C10.3455862,17.1568909 11.1546897,17.2909091 12,17.2909091 C15.865931,17.2909091 19,14.5394 19,11.1454545 C19,7.75150909 15.865931,5 12,5 Z"/></g><g id="crown-not-current" fill-rule="nonzero" transform="translate(24.000000, 24.000000)"><path id="Shape" fill="#B6B6B6" d="M2.54678977,19.4379818 L21.7506875,19.4379818 C22.4862799,19.4379818 23.0826034,19.9819035 23.0826034,20.6528557 C23.0826034,21.3238079 22.4862799,21.8677296 21.7506875,21.8677296 L2.54678977,21.8677296 C1.81119743,21.8677296 1.21487387,21.3238079 1.21487387,20.6528557 C1.21487387,19.9819035 1.81119743,19.4379818 2.54678977,19.4379818 Z"/><g id="Group"><g id="Shape" transform="translate(1.166279, 0.000000)"><polygon fill="#A0A0A0" points="10.965 .05 11.929 1.384 12.894 2.717 11.929 4.051 10.965 5.385 10.001 4.051 9.042 2.717 10.001 1.384"/><polygon fill="#A0A0A0" points=".93 4.823 1.816 5.59 2.703 6.356 2.242 7.458 1.78 8.559 .894 7.793 .007 7.026 .469 5.925"/><polygon fill="#A0A0A0" points="21 4.823 20.114 5.59 19.228 6.356 19.689 7.458 20.15 8.559 21.037 7.793 21.923 7.026 21.462 5.925"/><path fill="silver" d="M10.9652895,5.6113674 C-0.599013807,5.6113674 7.12434431,19.4177339 7.12434431,19.4177339 L14.8062347,19.4177339 C14.8062347,19.4177339 22.5295929,5.6113674 10.9652895,5.6113674 Z"/></g><g id="Shape" fill="#E9E9E9"><path d="M12.1315684,13.8158156 L15.9725137,13.8158156 C15.9725137,13.8158156 23.6958718,0.00944901895 12.1315684,0.00944901895 L12.1315684,13.8158156 Z" transform="translate(0.000000, 5.601918)"/><path d="M8.29062322,13.8158156 C8.29062322,13.8158156 4.3563757,6.79654435 6.31572427,2.75236424 C-5.17082714,2.78476087 2.52143021,13.8158156 2.52143021,13.8158156 L8.29062322,13.8158156 Z" transform="translate(0.000000, 5.601918)"/></g><path id="Shape" fill="silver" d="M17.9525961,8.35428261 C19.9119446,12.3822644 15.9776971,19.4177339 15.9776971,19.4177339 L21.7417067,19.4177339 C21.7417067,19.4177339 29.4391475,8.38667925 17.9525961,8.35428261 Z"/></g></g><g id="crown" fill-rule="nonzero" transform="translate(0.000000, 24.000000)"><path id="Shape" fill="#CE7419" d="M2.54678977,19.4379818 L21.7506875,19.4379818 C22.4862799,19.4379818 23.0826034,19.9819035 23.0826034,20.6528557 C23.0826034,21.3238079 22.4862799,21.8677296 21.7506875,21.8677296 L2.54678977,21.8677296 C1.81119743,21.8677296 1.21487387,21.3238079 1.21487387,20.6528557 C1.21487387,19.9819035 1.81119743,19.4379818 2.54678977,19.4379818 Z"/><g id="Group"><g id="Shape" fill="#FCBA29" transform="translate(1.166279, 0.000000)"><polygon points="10.965 .05 11.929 1.384 12.894 2.717 11.929 4.051 10.965 5.385 10.001 4.051 9.042 2.717 10.001 1.384"/><polygon points=".93 4.823 1.816 5.59 2.703 6.356 2.242 7.458 1.78 8.559 .894 7.793 .007 7.026 .469 5.925"/><polygon points="21 4.823 20.114 5.59 19.228 6.356 19.689 7.458 20.15 8.559 21.037 7.793 21.923 7.026 21.462 5.925"/><path d="M10.9652895,5.6113674 C-0.599013807,5.6113674 7.12434431,19.4177339 7.12434431,19.4177339 L14.8062347,19.4177339 C14.8062347,19.4177339 22.5295929,5.6113674 10.9652895,5.6113674 Z"/></g><g id="Shape" fill="#E99A23"><path d="M12.1315684,13.8158156 L15.9725137,13.8158156 C15.9725137,13.8158156 23.6958718,0.00944901895 12.1315684,0.00944901895 L12.1315684,13.8158156 Z" transform="translate(0.000000, 5.601918)"/><path d="M8.29062322,13.8158156 C8.29062322,13.8158156 4.3563757,6.79654435 6.31572427,2.75236424 C-5.17082714,2.78476087 2.52143021,13.8158156 2.52143021,13.8158156 L8.29062322,13.8158156 Z" transform="translate(0.000000, 5.601918)"/></g><path id="Shape" fill="#FCBA29" d="M17.9525961,8.35428261 C19.9119446,12.3822644 15.9776971,19.4177339 15.9776971,19.4177339 L21.7417067,19.4177339 C21.7417067,19.4177339 29.4391475,8.38667925 17.9525961,8.35428261 Z"/></g></g></g></svg>